<svg xmlns="http://www.w3.org/2000/svg" width="402" height="213" fill="none"><path fill="#38A852" stroke="#202124" stroke-linecap="round" stroke-linejoin="round" stroke-width="2" d="M201 211.078c110.457 0 200-47.028 200-105.039S311.457 1 201 1 1 48.028 1 106.039s89.543 105.039 200 105.039Z"/><path fill="#DADCE0" stroke="#202124" stroke-linecap="round" stroke-linejoin="round" stroke-width="2" d="M201 197.835c102.833 0 186.197-41.099 186.197-91.797S303.833 14.242 201 14.242c-102.834 0-186.197 41.098-186.197 91.796 0 50.698 83.363 91.797 186.197 91.797Z"/><path stroke="#202124" stroke-linecap="round" stroke-linejoin="round" stroke-width="2" d="M14.809 106.038h111.963M275.232 106.038h111.964"/><path fill="#428EFF" stroke="#202124" stroke-linecap="round" stroke-linejoin="round" stroke-width="2" d="M155.404 57.82h-48.49v96.443h48.49V57.821ZM245.342 155.79c27.477 0 49.751-22.274 49.751-49.751 0-27.477-22.274-49.751-49.751-49.751-27.477 0-49.751 22.274-49.751 49.751 0 27.477 22.274 49.751 49.751 49.751Z"/><path fill="#202124" d="M171.308 164.531h-9.349l26.6-116.985h9.348l-26.599 116.985Z"/><path fill="#FFBB01" d="M62.941 131.047c0-20.069-4.94-25.009-25.008-25.009 20.068 0 25.008-4.94 25.008-25.009 0 20.069 4.94 25.009 25.009 25.009-20.068 0-25.009 4.94-25.009 25.009Z"/><path stroke="#202124" stroke-linecap="round" stroke-linejoin="round" stroke-width="2" d="M62.941 131.047c0-20.069-4.94-25.009-25.008-25.009 20.068 0 25.008-4.94 25.008-25.009 0 20.069 4.94 25.009 25.009 25.009-20.068 0-25.009 4.94-25.009 25.009Z"/><path fill="#FFBB01" d="M339.064 131.048c0-20.069-4.94-25.009-25.008-25.009 20.068 0 25.008-4.94 25.008-25.009 0 20.069 4.941 25.009 25.009 25.009-20.068 0-25.009 4.94-25.009 25.009Z"/><path stroke="#202124" stroke-linecap="round" stroke-linejoin="round" stroke-width="2" d="M339.064 131.048c0-20.069-4.94-25.009-25.008-25.009 20.068 0 25.008-4.94 25.008-25.009 0 20.069 4.941 25.009 25.009 25.009-20.068 0-25.009 4.94-25.009 25.009Z"/></svg>